<svg width="112" height="56" viewBox="0 0 112 56" fill="none" xmlns="http://www.w3.org/2000/svg">
<path d="M43.6799 45.0074V45.4767L39.5836 43.5556L43.6799 41.6085V42.1737H49.5521V39.073H42.7025V36.4104H49.7803V33.1282H38.7695V48.2871H50.0006V45.0048H43.6773L43.6799 45.0074Z" fill="#27272A"/>
<path d="M67.1489 33.1306L60.4756 40.8851L53.7815 33.1306H51.7256V48.2895H55.4823V40.2343L59.8456 45.391H61.116L65.4793 40.2343V48.2895H69.236V33.1306H67.1489Z" fill="#27272A"/>
<path d="M80.1975 33.04H78.5978L70.9082 48.2897H74.9967L76.1582 45.8474H82.6578L83.8038 48.2897H87.9052L80.2001 33.04H80.1975ZM77.4701 43.0604L79.3912 38.9641L81.3382 43.0604H77.4701Z" fill="#27272A"/>
<path d="M48.3337 48.2611L48.2793 48.2871V48.2378L48.3337 48.2611Z" fill="#27272A"/>
<path d="M37.0042 45.0073V48.2869H25.7705V33.1306H36.7838V36.4102H29.7035V39.0728H32.5087V38.6943L33.3175 39.0728L36.5531 40.5895V40.6414L33.315 42.1762L32.5087 42.5599V42.1762H29.7035V45.0073H37.0042Z" fill="#27272A"/>
<path d="M24.0699 44.7377C24.0699 46.5266 23.4036 47.9396 22.097 48.9325C20.8007 49.9125 19.1025 50.4129 17.0414 50.4129C14.9803 50.4129 13.2355 49.9125 11.7759 48.9299C11.037 48.4322 10.464 47.8125 10.0596 47.0736C9.65254 46.3322 9.41402 45.4714 9.34142 44.5018L9.33105 44.3307H13.0048L13.0229 44.4707C13.1474 45.5025 13.5907 46.2207 14.3814 46.6666C15.1877 47.1177 16.0822 47.351 17.0388 47.351C17.9955 47.351 18.7707 47.1436 19.4396 46.7392C20.0955 46.3425 20.4092 45.7644 20.4092 44.9736C20.4092 44.5536 20.3133 44.1777 20.1214 43.8536C19.9296 43.5322 19.6029 43.2392 19.1544 42.9877C18.6877 42.7259 18.2548 42.5236 17.8659 42.3759C17.477 42.2333 16.9014 42.0414 16.1522 41.8159C14.0366 41.1496 12.4292 40.3951 11.3714 39.5681C10.2903 38.7203 9.73809 37.4992 9.73809 35.9255C9.73809 34.2066 10.3836 32.8533 11.6644 31.9044C12.927 30.9633 14.6018 30.4836 16.6396 30.4836C18.5451 30.4836 20.1888 30.9451 21.5188 31.8551C22.8644 32.7781 23.624 34.2118 23.7718 36.1173L23.7874 36.2885H20.1811L20.1629 36.1536C20.0229 35.2488 19.6211 34.5722 18.9651 34.1444C18.2936 33.7088 17.5133 33.4885 16.6448 33.4885C15.7762 33.4885 14.9959 33.6855 14.3399 34.0744C13.7022 34.4503 13.3911 35.0103 13.3911 35.7829C13.3911 36.1096 13.4662 36.4129 13.6166 36.6748C13.7748 36.9522 13.9485 37.1803 14.1351 37.3566C14.3166 37.5329 14.6277 37.7092 15.0659 37.8907C15.5118 38.0748 15.8644 38.2122 16.1159 38.3003C16.3674 38.3859 16.7874 38.5207 17.4018 38.7048C18.3377 39.0081 19.0351 39.244 19.4759 39.4048C19.9218 39.5681 20.4999 39.8248 21.1999 40.1748C21.9129 40.5299 22.4418 40.8929 22.7685 41.2507C23.0951 41.6085 23.3959 42.0907 23.6603 42.687C23.9248 43.2885 24.0622 43.9755 24.0622 44.7299L24.0699 44.7377Z" fill="#27272A"/>
<path d="M102.667 44.7377C102.667 46.5266 102.006 47.9396 100.694 48.9325C99.3977 49.9125 97.6996 50.4129 95.6436 50.4129C93.5877 50.4129 91.8377 49.9125 90.3781 48.9299C88.9003 47.937 88.0836 46.4462 87.9436 44.5018L87.9307 44.3307H91.607L91.6225 44.4707C91.747 45.5025 92.1929 46.2207 92.9836 46.6666C93.7847 47.1177 94.6792 47.351 95.641 47.351C96.6029 47.351 97.3703 47.1436 98.0418 46.7392C98.6951 46.3425 99.0114 45.7644 99.0114 44.9736C99.0114 44.5536 98.9129 44.1777 98.721 43.8536C98.5292 43.5322 98.2051 43.2392 97.754 42.9877C97.2899 42.7259 96.8544 42.5236 96.4681 42.3759C96.0766 42.2333 95.501 42.0414 94.7518 41.8159C92.6388 41.1496 91.0314 40.3951 89.971 39.5681C88.8899 38.7203 88.3377 37.4992 88.3377 35.9255C88.3377 34.2066 88.9858 32.8533 90.264 31.9044C91.5266 30.9633 93.2014 30.4836 95.2392 30.4836C97.1499 30.4836 98.791 30.9451 100.121 31.8551C101.464 32.7781 102.226 34.2118 102.374 36.1173L102.387 36.2885H98.7833L98.7599 36.1536C98.6199 35.2359 98.2284 34.5773 97.5621 34.1444C96.8933 33.7088 96.1129 33.4885 95.2444 33.4885C94.3758 33.4885 93.5955 33.6855 92.9396 34.0744C92.2992 34.4503 91.9907 35.0103 91.9907 35.7829C91.9907 36.1096 92.0658 36.4129 92.2162 36.6748C92.3718 36.9522 92.5481 37.1803 92.7321 37.3566C92.9162 37.5329 93.2299 37.7092 93.6629 37.8907C94.1114 38.0748 94.464 38.2122 94.7155 38.3003C94.9644 38.3859 95.3947 38.5207 95.9988 38.7048C96.9347 39.0081 97.6321 39.244 98.0729 39.4048C98.5188 39.5681 99.1021 39.8248 99.8021 40.1748C100.515 40.5299 101.044 40.8929 101.371 41.2507C101.697 41.6085 101.998 42.0907 102.26 42.687C102.527 43.2885 102.662 43.9755 102.662 44.7299L102.667 44.7377Z" fill="#27272A"/>
<path d="M37.9532 18.5268C39.0291 19.5768 40.4887 20.2379 42.1013 20.2716C41.4921 21.1582 41.1369 22.2264 41.1369 23.3827C41.1369 23.9531 41.2224 24.4975 41.3832 25.0134C40.9528 25.1923 40.4784 25.2934 39.978 25.2934C37.9428 25.2934 36.2861 23.6368 36.2861 21.6016C36.2861 20.8601 36.5065 20.1757 36.8824 19.6001L36.8876 19.5949C37.3076 19.3097 37.6732 18.9442 37.9584 18.5242L37.9532 18.5268Z" fill="#37623A"/>
<path d="M51.1908 23.3854C51.1908 25.8976 49.1504 27.9379 46.6382 27.9379C44.8727 27.9379 43.3353 26.9268 42.586 25.4465C42.5108 25.3013 42.446 25.1561 42.3916 25.0005C42.3267 24.845 42.2775 24.6817 42.236 24.5157C42.1401 24.1554 42.0908 23.7742 42.0908 23.3854C42.0908 22.1487 42.586 21.0287 43.3871 20.2094L43.4312 20.1654C43.5712 20.1394 43.7112 20.1057 43.8512 20.0694C44.0016 20.0254 44.1519 19.9787 44.3023 19.9242C44.9919 19.6779 45.6271 19.315 46.1845 18.8587C46.3349 18.8431 46.4853 18.8328 46.6408 18.8328C49.153 18.8328 51.1934 20.8731 51.1934 23.3854H51.1908Z" fill="#37623A"/>
<path d="M63.3158 25.1562C62.6313 27.4221 60.5235 29.0736 58.0372 29.0736C54.9961 29.0736 52.5254 26.6028 52.5254 23.5617C52.5254 21.7806 53.3706 20.1991 54.6824 19.1906C54.8976 19.2165 55.118 19.2295 55.3384 19.2295C56.6243 19.2295 57.8143 18.8095 58.7761 18.0991C59.7406 18.2236 60.6324 18.6099 61.3765 19.175C61.2521 19.6443 61.1872 20.1395 61.1872 20.645C61.1872 22.4599 62.0169 24.0828 63.3184 25.1588L63.3158 25.1562Z" fill="#37623A"/>
<path d="M71.9153 20.8237C71.8194 23.4345 69.665 25.5319 67.0283 25.5319C66.0587 25.5319 65.1565 25.2519 64.3968 24.7619C64.2465 24.6659 64.1013 24.5674 63.9613 24.4508C63.8109 24.3263 63.6657 24.1967 63.5257 24.0567C62.665 23.1752 62.1387 21.9748 62.1387 20.6448C62.1387 20.4037 62.1542 20.1704 62.1879 19.9396C62.219 19.7452 62.2579 19.5482 62.3072 19.3641C62.3513 19.193 62.4083 19.0245 62.4731 18.8637C62.7142 18.2441 63.0772 17.6893 63.5335 17.2174C64.3502 17.583 65.255 17.7878 66.209 17.7878C67.4846 17.7878 68.6746 17.4222 69.6857 16.7922C69.8465 18.4282 70.6813 19.8645 71.9127 20.8237H71.9153Z" fill="#37623A"/>
<path d="M80.3964 16.2115C80.3964 18.9078 78.2057 21.1037 75.5094 21.1037C74.5372 21.1037 73.6272 20.8185 72.8676 20.3233C72.6861 20.2093 72.5176 20.0848 72.3516 19.9448C72.1313 19.7582 71.9264 19.5482 71.7424 19.3278L71.7372 19.3226C71.3068 18.8041 70.9853 18.1974 70.8013 17.5337L70.7961 17.5285C70.7157 17.2511 70.6664 16.9634 70.6353 16.6678C70.6198 16.5174 70.6172 16.3671 70.6172 16.2115V16.0922C70.6172 16.0922 70.6405 16.0715 70.6509 16.0611C71.7424 15.0708 72.4916 13.7148 72.7224 12.1956C73.5131 11.6434 74.4776 11.3245 75.5094 11.3245C78.2057 11.3245 80.3964 13.5152 80.3964 16.2115Z" fill="#37623A"/>
<path d="M51.4653 9.92705C51.4653 10.1682 51.4342 10.4015 51.3746 10.627C51.2683 11.073 51.0557 11.4722 50.7653 11.8067C50.5812 12.027 50.3609 12.2163 50.1146 12.3719C49.9486 12.4782 49.7749 12.5663 49.5831 12.6311C49.2668 12.7556 48.9272 12.8204 48.5668 12.8204C48.4605 12.8204 48.3568 12.8152 48.2557 12.8048C48.0794 12.7841 47.9109 12.7504 47.7449 12.6985C47.5401 12.6389 47.3509 12.5585 47.1694 12.4574C46.3527 12.0115 45.7798 11.1819 45.6786 10.2174C45.6683 10.1215 45.6631 10.023 45.6631 9.92186C45.6631 9.81297 45.6683 9.70149 45.6838 9.59779C45.7046 9.42149 45.7383 9.25297 45.7901 9.09223C46.1453 7.89705 47.2549 7.02075 48.5668 7.02075C49.8786 7.02075 51.0375 7.93594 51.3642 9.18297C51.4186 9.37223 51.4498 9.56927 51.4549 9.77409C51.4653 9.82334 51.4653 9.8752 51.4653 9.92446V9.92705Z" fill="#37623A"/>
<path d="M71.8401 11.2079C71.8401 11.3686 71.8349 11.5242 71.8219 11.6798C71.8012 11.9286 71.7597 12.1801 71.7105 12.4186C71.7105 12.4238 71.7053 12.4238 71.7053 12.4238C71.4797 13.4609 70.9664 14.3864 70.256 15.1175C70.1212 15.2575 69.9786 15.3923 69.8308 15.5116C69.7842 15.5505 69.7401 15.5868 69.6908 15.6205C69.6001 15.6957 69.5093 15.7657 69.4082 15.8305C69.2553 15.942 69.0893 16.0431 68.9234 16.1364C68.1197 16.5823 67.1942 16.8312 66.2116 16.8312C65.5764 16.8312 64.9619 16.7275 64.3916 16.5279C64.2127 16.4683 64.0364 16.3983 63.8627 16.3179H63.8575C63.6967 16.2427 63.5412 16.1572 63.3908 16.0664C62.416 15.5012 61.6253 14.6457 61.1353 13.6216C60.7853 12.8905 60.5908 12.0686 60.5908 11.2079C60.5908 11.1301 60.5908 11.0446 60.5908 10.9642C60.723 7.97753 63.1938 5.58716 66.209 5.58716C69.2242 5.58716 71.8375 8.10716 71.8375 11.2079H71.8401Z" fill="#37623A"/>
<path d="M47.4237 13.6061C47.4393 13.7746 47.447 13.9509 47.447 14.1246C47.447 15.6361 46.7989 17.0024 45.7619 17.9539C45.2226 18.4543 44.577 18.838 43.8615 19.0687C43.7059 19.1231 43.5452 19.1698 43.3819 19.2035C43.2496 19.2346 43.1148 19.258 42.98 19.2787C42.9359 19.2839 42.8919 19.2891 42.84 19.2943C42.6456 19.3176 42.4459 19.328 42.2463 19.328C40.9656 19.328 39.7885 18.8587 38.8785 18.0835C38.7385 17.9668 38.6089 17.8424 38.4819 17.7128C38.4533 17.6868 38.4274 17.6583 38.4093 17.6324C38.3185 17.5365 38.233 17.438 38.1526 17.3317C38.1189 17.2876 38.0826 17.2435 38.0489 17.1968C37.9141 17.0128 37.787 16.8131 37.6782 16.6083C37.3178 15.9524 37.0922 15.2057 37.0482 14.415C37.0482 14.3217 37.043 14.2257 37.043 14.1246C37.043 13.9846 37.0482 13.8498 37.0585 13.715C37.0715 13.5257 37.0974 13.3417 37.1311 13.155C37.5874 10.7439 39.7082 8.9187 42.2463 8.9187C43.1459 8.9187 43.9911 9.14685 44.7326 9.55389C44.717 9.67833 44.7119 9.80278 44.7119 9.92722C44.7119 11.6539 45.8526 13.1213 47.4237 13.6061Z" fill="#37623A"/>
<path d="M59.6346 11.2078C59.6346 12.1308 59.8239 13.0045 60.1687 13.8004C60.0702 15.12 59.435 16.2971 58.4783 17.1111C58.2787 17.2822 58.0635 17.4378 57.8379 17.5726H57.8094C57.8094 17.5726 57.8042 17.5726 57.8042 17.5778C57.0731 18.0185 56.2539 18.2726 55.3361 18.2726H55.222C54.9524 18.2674 54.6931 18.2389 54.4365 18.1871C52.1913 17.7619 50.4854 15.7863 50.4854 13.4245C50.4854 13.37 50.4854 13.3208 50.4905 13.2663C51.6442 12.6 52.4194 11.353 52.4194 9.92706C52.4194 9.8078 52.4168 9.68336 52.4013 9.5641C53.2154 8.94188 54.2368 8.57373 55.3361 8.57373C57.2028 8.57373 58.8231 9.6341 59.6346 11.1845V11.2078Z" fill="#37623A"/>
<path d="M36.0861 14.1246C36.0861 15.4961 36.5372 16.7613 37.2968 17.7828C37.2865 17.8035 37.2735 17.8216 37.258 17.8424C37.0013 18.2779 36.6357 18.6383 36.208 18.8924C35.7517 19.1724 35.215 19.3279 34.6446 19.3279C32.9698 19.3279 31.6035 17.9642 31.6035 16.2816C31.6035 14.5991 32.9698 13.2354 34.6446 13.2354C35.1761 13.2354 35.6765 13.3702 36.112 13.6165C36.0913 13.785 36.0861 13.9561 36.0861 14.1246Z" fill="#37623A"/>
</svg>
